PathFileType	4	(X/Y/Z)	/home/nbianco/projects/addbio/data/Arnold2013Walking/Processed/subject19//results/MarkerData/walk2.trc
DataRate	CameraRate	NumFrames	NumMarkers	Units	OrigDataRate	OrigDataStartFrame	OrigNumFrames
200	200	6	64	m	200	0	213
Frame#	Time	C7			CLAV			LACR			LAJC			LASH			LASI			LCAL			LEJC			LFAradius			LFAsuperior			LFAulna			LHJC			LKJC			LLEL			LLFC			LLMAL			LMEL			LMFC			LMMAL			LMT5			LPSH			LPSI			LSJC			LTB1			LTB2			LTB3			LTH1			LTH2			LTH3			LTOE			LUA1			LUA2			LUA3			RACR			RAJC			RASH			RASI			RCAL			REJC			RFAradius			RFAsuperior			RFAulna			RHJC			RKJC			RLEL			RLFC			RLMAL			RMEL			RMFC			RMMAL			RMT5			RPSH			RPSI			RSJC			RTB1			RTB2			RTB3			RTH1			RTH2			RTH3			RTOE			RUA1			RUA2			RUA3		
		X1	Y1	Z1	X2	Y2	Z2	X3	Y3	Z3	X4	Y4	Z4	X5	Y5	Z5	X6	Y6	Z6	X7	Y7	Z7	X8	Y8	Z8	X9	Y9	Z9	X10	Y10	Z10	X11	Y11	Z11	X12	Y12	Z12	X13	Y13	Z13	X14	Y14	Z14	X15	Y15	Z15	X16	Y16	Z16	X17	Y17	Z17	X18	Y18	Z18	X19	Y19	Z19	X20	Y20	Z20	X21	Y21	Z21	X22	Y22	Z22	X23	Y23	Z23	X24	Y24	Z24	X25	Y25	Z25	X26	Y26	Z26	X27	Y27	Z27	X28	Y28	Z28	X29	Y29	Z29	X30	Y30	Z30	X31	Y31	Z31	X32	Y32	Z32	X33	Y33	Z33	X34	Y34	Z34	X35	Y35	Z35	X36	Y36	Z36	X37	Y37	Z37	X38	Y38	Z38	X39	Y39	Z39	X40	Y40	Z40	X41	Y41	Z41	X42	Y42	Z42	X43	Y43	Z43	X44	Y44	Z44	X45	Y45	Z45	X46	Y46	Z46	X47	Y47	Z47	X48	Y48	Z48	X49	Y49	Z49	X50	Y50	Z50	X51	Y51	Z51	X52	Y52	Z52	X53	Y53	Z53	X54	Y54	Z54	X55	Y55	Z55	X56	Y56	Z56	X57	Y57	Z57	X58	Y58	Z58	X59	Y59	Z59	X60	Y60	Z60	X61	Y61	Z61	X62	Y62	Z62	X63	Y63	Z63	X64	Y64	Z64

1	2.72	0.85631	1.48071	-0.507213	0.963273	1.40335	-0.498862	0.944064	1.45655	-0.652235	0.597509	0.0676628	-0.573589	0.987433	1.39449	-0.695871	0.959286	0.962298	-0.632172	0.529531	0.0747228	-0.585544	0.890152	1.11419	-0.75352	1.13351	1.01571	-0.723073	0.973036	1.08338	-0.74466	1.10598	0.9613	-0.728182	0.891551	0.861419	-0.579834	0.77902	0.485253	-0.572837	0.895586	1.12837	-0.792971	0.78589	0.48278	-0.630747	0.616741	0.0734535	-0.630392	0.876677	1.11114	-0.723476	0.770604	0.488918	-0.518691	0.612257	0.0755595	-0.529107	0.697713	0.0128408	-0.625819	0.885821	1.41475	-0.704166	0.799551	0.988085	-0.554716	0.943359	1.40328	-0.699469	0.718941	0.317297	-0.626339	0.718214	0.227367	-0.560685	0.674168	0.165058	-0.630047	0.878127	0.712395	-0.646768	0.911593	0.6222	-0.569377	0.827065	0.575708	-0.641668	0.753701	0.0455147	-0.528173	0.932328	1.35708	-0.726735	0.896955	1.20829	-0.75917	0.946936	1.26979	-0.74413	0.918986	1.4545	-0.350048	1.20652	0.0816992	-0.426652	0.954639	1.3918	-0.300703	0.952629	0.971045	-0.37857	1.14339	0.05322	-0.422104	0.755688	1.14524	-0.315938	0.774768	0.885857	-0.268844	0.763919	1.0586	-0.297797	0.717241	0.883669	-0.289596	0.887548	0.866679	-0.427314	1.04612	0.507839	-0.428334	0.746806	1.15766	-0.276521	1.0485	0.508971	-0.370204	1.2104	0.0971519	-0.368547	0.756879	1.14613	-0.348973	1.04288	0.506318	-0.483293	1.2161	0.0992336	-0.469771	1.31355	0.0868458	-0.36168	0.860553	1.41056	-0.308384	0.797219	0.991149	-0.465881	0.910564	1.40059	-0.304301	1.1144	0.343488	-0.373496	1.18302	0.280754	-0.434773	1.18778	0.20287	-0.367356	0.968046	0.743081	-0.355819	1.05867	0.697994	-0.426529	1.01846	0.60611	-0.359647	1.35663	0.141374	-0.456061	0.875339	1.36096	-0.290596	0.78682	1.2322	-0.295892	0.853961	1.27398	-0.279971
2	2.725	0.862725	1.47998	-0.506105	0.969734	1.40268	-0.497907	0.950502	1.45618	-0.651172	0.598213	0.0691668	-0.573729	0.993911	1.39423	-0.694933	0.965482	0.961502	-0.632352	0.530326	0.0770082	-0.585714	0.896306	1.11398	-0.752619	1.13935	1.01459	-0.722551	0.979104	1.08288	-0.743897	1.11159	0.960288	-0.727586	0.897875	0.860669	-0.57976	0.784071	0.484841	-0.572801	0.901739	1.12816	-0.792068	0.790629	0.48249	-0.630772	0.617364	0.0748429	-0.63057	0.882842	1.11094	-0.72257	0.775863	0.488512	-0.51864	0.613151	0.0768417	-0.529271	0.697753	0.0130532	-0.625898	0.892286	1.41444	-0.703192	0.806043	0.987394	-0.554322	0.949831	1.403	-0.698515	0.722112	0.317602	-0.626405	0.720608	0.227585	-0.560884	0.675744	0.165844	-0.63023	0.883619	0.711797	-0.646858	0.917104	0.621365	-0.569753	0.832088	0.575287	-0.641736	0.75415	0.0452678	-0.528335	0.938742	1.35682	-0.725788	0.903203	1.20807	-0.758247	0.953254	1.26952	-0.743213	0.925408	1.45349	-0.348991	1.21109	0.0801096	-0.427397	0.961096	1.39071	-0.299773	0.959747	0.970278	-0.378728	1.14768	0.0522932	-0.422654	0.762743	1.1438	-0.315716	0.781865	0.884254	-0.269576	0.770979	1.0571	-0.297908	0.724306	0.882141	-0.290249	0.894426	0.865947	-0.427227	1.05402	0.507494	-0.428712	0.753851	1.15608	-0.276256	1.0563	0.508585	-0.370548	1.21526	0.0955472	-0.369309	0.763915	1.14479	-0.348748	1.05064	0.506033	-0.483638	1.22068	0.0975573	-0.47055	1.31835	0.0841852	-0.362741	0.866999	1.40943	-0.30742	0.804034	0.990468	-0.465479	0.917016	1.39948	-0.303355	1.12118	0.342627	-0.374036	1.18912	0.279342	-0.435503	1.19347	0.20144	-0.368079	0.975263	0.742477	-0.35589	1.06597	0.697691	-0.426683	1.02602	0.605638	-0.359879	1.36173	0.138192	-0.457285	0.881892	1.35973	-0.289757	0.793677	1.23077	-0.295413	0.860726	1.27266	-0.279394
3	2.73	0.869116	1.4793	-0.50499	0.976189	1.40207	-0.496926	0.956943	1.45587	-0.650087	0.598988	0.0707967	-0.573832	1.00041	1.39404	-0.693963	0.971699	0.960768	-0.632567	0.531207	0.0794775	-0.585833	0.902405	1.11382	-0.751582	1.14502	1.01321	-0.722107	0.985082	1.08233	-0.743071	1.11697	0.959052	-0.727043	0.904246	0.859975	-0.579703	0.789356	0.484424	-0.57276	0.907812	1.128	-0.791037	0.795578	0.482212	-0.630795	0.618055	0.0763509	-0.630714	0.888969	1.1108	-0.721518	0.781366	0.488103	-0.518585	0.614123	0.0782412	-0.529402	0.697792	0.0133271	-0.625965	0.898773	1.41419	-0.702202	0.812597	0.986755	-0.553884	0.956327	1.40278	-0.697537	0.725446	0.31795	-0.626455	0.723131	0.227855	-0.561065	0.677422	0.166711	-0.630388	0.889205	0.711254	-0.646965	0.922775	0.620596	-0.570162	0.837274	0.574896	-0.641812	0.754636	0.0450103	-0.528487	0.945154	1.35662	-0.724797	0.909406	1.20791	-0.757218	0.959545	1.2693	-0.742237	0.93179	1.45255	-0.347917	1.21487	0.0782668	-0.428066	0.967521	1.3897	-0.298818	0.967007	0.969537	-0.378921	1.15107	0.0514044	-0.42306	0.769962	1.14231	-0.315428	0.789225	0.882613	-0.270234	0.778235	1.05555	-0.297954	0.731631	0.880551	-0.290811	0.901424	0.865248	-0.427157	1.06219	0.507239	-0.429079	0.761054	1.15444	-0.275927	1.06433	0.508293	-0.370871	1.2194	0.0936901	-0.370001	0.771111	1.14341	-0.348458	1.05867	0.505846	-0.483963	1.22449	0.0955932	-0.471261	1.32243	0.0807985	-0.363824	0.87341	1.40835	-0.306447	0.810953	0.989826	-0.465034	0.923434	1.39844	-0.302392	1.12784	0.341719	-0.374542	1.19492	0.277709	-0.436205	1.1987	0.199801	-0.368754	0.982621	0.741935	-0.355958	1.07345	0.697485	-0.426804	1.03377	0.605247	-0.360097	1.36625	0.134065	-0.458583	0.888444	1.35853	-0.288892	0.800633	1.22932	-0.294883	0.867559	1.27137	-0.278777
4	2.735	0.875491	1.47866	-0.503862	0.98264	1.40152	-0.495919	0.963385	1.4556	-0.648979	0.599846	0.0725638	-0.573904	1.00693	1.39391	-0.692964	0.977935	0.960119	-0.632821	0.532188	0.0821457	-0.585909	0.908441	1.11372	-0.75045	1.15053	1.01162	-0.721697	0.990962	1.08173	-0.742193	1.12212	0.957635	-0.726527	0.910686	0.85934	-0.57967	0.794869	0.484016	-0.572723	0.91381	1.12788	-0.789915	0.800737	0.481957	-0.630826	0.618823	0.077989	-0.630828	0.895043	1.11072	-0.720367	0.787108	0.487702	-0.518535	0.615181	0.0797695	-0.529502	0.697833	0.0136662	-0.626019	0.905274	1.41397	-0.701194	0.819207	0.986151	-0.553401	0.962838	1.40261	-0.696534	0.728943	0.318355	-0.626495	0.725785	0.228193	-0.561234	0.679206	0.167673	-0.630525	0.894902	0.710771	-0.647097	0.928614	0.619897	-0.570613	0.842628	0.574546	-0.641902	0.755161	0.0447453	-0.52863	0.951562	1.35646	-0.72377	0.915563	1.20779	-0.756113	0.965808	1.26911	-0.741215	0.938145	1.45166	-0.346823	1.21789	0.0761873	-0.428643	0.973926	1.38875	-0.297838	0.974414	0.968831	-0.379155	1.15366	0.0504325	-0.423327	0.777313	1.14079	-0.315089	0.796847	0.880957	-0.270805	0.785665	1.05398	-0.297937	0.739216	0.878916	-0.291284	0.908568	0.86458	-0.427112	1.0706	0.507038	-0.429431	0.768382	1.15278	-0.275549	1.07256	0.508066	-0.371172	1.22284	0.0915995	-0.37061	0.77844	1.14198	-0.348117	1.0669	0.505712	-0.484267	1.22755	0.0933566	-0.471891	1.32575	0.0769397	-0.364882	0.879798	1.40732	-0.305459	0.817974	0.989203	-0.464543	0.929831	1.39745	-0.301408	1.13438	0.340753	-0.375008	1.20041	0.275857	-0.436877	1.20348	0.197963	-0.369374	0.990138	0.741444	-0.356032	1.0811	0.697339	-0.42692	1.0417	0.604915	-0.360303	1.37007	0.129336	-0.459899	0.894998	1.35738	-0.288003	0.807669	1.22785	-0.294313	0.874446	1.27011	-0.278125
5	2.74	0.881858	1.47805	-0.502716	0.989096	1.40102	-0.49489	0.969824	1.45538	-0.64785	0.600793	0.0744773	-0.573953	1.01346	1.39382	-0.691943	0.984204	0.959566	-0.633107	0.533279	0.0850244	-0.585956	0.914405	1.11366	-0.749274	1.15587	1.00988	-0.721269	0.996741	1.08112	-0.74128	1.12706	0.956094	-0.726002	0.917219	0.858766	-0.579662	0.80061	0.483623	-0.572703	0.919742	1.1278	-0.788751	0.806104	0.481732	-0.630873	0.619676	0.0797671	-0.630922	0.901046	1.11069	-0.719171	0.793086	0.487317	-0.518502	0.616334	0.0814362	-0.529584	0.697882	0.0140738	-0.626063	0.911779	1.41377	-0.700165	0.825878	0.985568	-0.552878	0.969355	1.40248	-0.695509	0.732606	0.318825	-0.626538	0.728576	0.228606	-0.561401	0.681102	0.16874	-0.630654	0.900724	0.71035	-0.647257	0.934626	0.619266	-0.571107	0.848155	0.57424	-0.642015	0.755725	0.0444787	-0.528765	0.957964	1.35634	-0.722718	0.921675	1.20772	-0.754971	0.972041	1.26897	-0.74016	0.944495	1.45081	-0.345711	1.22022	0.0739215	-0.429127	0.980334	1.38785	-0.296838	0.981959	0.968167	-0.379422	1.15556	0.049331	-0.42348	0.784765	1.13925	-0.31471	0.804717	0.879314	-0.271285	0.793246	1.0524	-0.29786	0.747056	0.877254	-0.291677	0.915869	0.863939	-0.427093	1.07914	0.506845	-0.429765	0.775803	1.1511	-0.275133	1.0809	0.507861	-0.37145	1.22564	0.0893236	-0.371133	0.785872	1.14054	-0.347734	1.07525	0.505581	-0.484546	1.22994	0.0909035	-0.472436	1.32838	0.0728293	-0.365866	0.886187	1.40632	-0.304452	0.825092	0.988581	-0.464014	0.936231	1.3965	-0.300405	1.14076	0.339718	-0.37543	1.20557	0.273813	-0.437512	1.20782	0.195956	-0.369934	0.997803	0.740985	-0.356117	1.08889	0.697204	-0.427047	1.04976	0.604611	-0.360502	1.37318	0.124284	-0.461165	0.90157	1.35625	-0.287092	0.814772	1.22638	-0.293713	0.881382	1.26887	-0.27744
6	2.745	0.888226	1.47746	-0.50155	0.995564	1.40056	-0.493848	0.976259	1.45519	-0.646705	0.601836	0.0765365	-0.573995	1.01999	1.39378	-0.690908	0.990534	0.959091	-0.633402	0.53449	0.088111	-0.585992	0.920303	1.11366	-0.748074	1.16105	1.00803	-0.720801	1.00242	1.0805	-0.740335	1.13182	0.95447	-0.725453	0.923855	0.858242	-0.579668	0.806587	0.483235	-0.572701	0.925616	1.12778	-0.787562	0.811693	0.481527	-0.63094	0.620621	0.0816843	-0.631008	0.906978	1.11072	-0.717953	0.799307	0.486936	-0.51849	0.617584	0.0832396	-0.529659	0.697943	0.0145497	-0.626099	0.918282	1.41362	-0.699117	0.832623	0.985005	-0.552332	0.975872	1.40239	-0.694469	0.736445	0.319353	-0.626588	0.731507	0.229091	-0.561575	0.683119	0.169908	-0.630782	0.906686	0.709982	-0.647436	0.940823	0.618693	-0.571638	0.85387	0.57397	-0.642149	0.756323	0.0442152	-0.528895	0.964358	1.35626	-0.721649	0.927744	1.2077	-0.753809	0.978246	1.26886	-0.739083	0.95086	1.45	-0.344583	1.22199	0.0715454	-0.429541	0.986771	1.38699	-0.295824	0.989612	0.967541	-0.379703	1.1569	0.0481733	-0.423567	0.792315	1.13772	-0.314292	0.812824	0.877689	-0.271687	0.800973	1.05083	-0.297731	0.755136	0.875577	-0.291996	0.923301	0.863324	-0.42709	1.08771	0.506628	-0.430078	0.783319	1.14942	-0.27468	1.08927	0.507642	-0.371706	1.22791	0.0869284	-0.371591	0.793401	1.13909	-0.347313	1.08362	0.505428	-0.484803	1.23178	0.088322	-0.472914	1.33039	0.0685418	-0.366767	0.892601	1.40535	-0.303426	0.8323	0.987965	-0.463463	0.942657	1.39559	-0.299385	1.14695	0.338619	-0.375815	1.21044	0.271633	-0.438107	1.21177	0.193828	-0.370444	1.00556	0.740537	-0.356205	1.09676	0.697045	-0.427169	1.05788	0.604303	-0.360688	1.37571	0.118994	-0.462356	0.908178	1.35515	-0.286162	0.821949	1.22492	-0.293082	0.888379	1.26766	-0.276728
